<svg id="Layer_1" enable-background="new 0 0 512 512" height="512" viewBox="0 0 512 512" width="512" xmlns="http://www.w3.org/2000/svg"><g><g clip-rule="evenodd" fill-rule="evenodd"><path d="m392 36h-272c60.5 0 110 49.5 110 110v100.001 110 105.602l22.667 14.397 22.667-14.398 22.666 14.398 22.667-14.398 22.666 14.398 22.667-14.397 22.667 14.397 22.667-14.398 22.666 14.398 22.667-14.398 22.666 14.398 22.667-14.397v-315.603c0-60.5-49.5-110-110-110z" fill="#e3eaef"/><path d="m230 356v-110c0 60.5-49.5 110-110 110z" fill="#a7bdcd"/><path d="m120 356c60.5 0 110-49.5 110-110v-100c0-60.5-49.5-110-110-110s-110 49.5-110 110v100.001c0 60.499 49.5 109.999 110 109.999zm30.001-210v100c0 16.5-13.5 30-30 30s-30-13.5-30-30v-100c0-16.5 13.5-30 30-30s30 13.5 30 30z" fill="#c5d3de"/><path d="m120 276c16.5 0 30-13.5 30-30v-100c0-16.5-13.5-30-30-30-16.501 0-30 13.5-30 30v100c0 16.5 13.5 30 30 30z" fill="#a7bdcd"/></g><g><path d="m160 246v-100c0-22.056-17.944-40-40-40s-40 17.944-40 40v100c0 22.056 17.944 40 40 40s40-17.944 40-40zm-60 0v-100c0-11.028 8.972-20 20-20s20 8.972 20 20v100c0 11.028-8.972 20-20 20s-20-8.972-20-20z"/><path d="m392 26h-272c-66.168 0-120 53.831-120 120v100c0 66.168 53.832 120 120 120h100v95.602c0 3.422 1.75 6.606 4.638 8.441l22.667 14.397c3.272 2.078 7.451 2.079 10.724 0l17.305-10.992 17.305 10.992c3.272 2.079 7.451 2.079 10.724 0l17.305-10.992 17.305 10.992c3.272 2.079 7.451 2.079 10.724 0l17.303-10.991 17.305 10.992c3.272 2.079 7.451 2.079 10.724 0l17.305-10.992 17.305 10.992c3.272 2.078 7.451 2.079 10.724 0l17.305-10.992 17.305 10.992c1.636 1.04 3.499 1.559 5.362 1.559s3.726-.52 5.362-1.559l22.667-14.397c2.888-1.835 4.638-5.02 4.638-8.441v-315.603c-.002-66.169-53.834-120-120.002-120zm-372 220v-100c0-55.14 44.86-100 100-100 55.14 0 100 44.86 100 100v100c0 55.14-44.86 100-100 100s-100-44.859-100-100zm166.255 100c13.368-8.886 24.859-20.378 33.745-33.746v33.746zm293.078 118.153-17.305-10.992c-3.272-2.078-7.451-2.078-10.724 0l-17.304 10.992-17.305-10.992c-3.272-2.078-7.451-2.078-10.724 0l-17.305 10.992-17.305-10.992c-3.272-2.078-7.451-2.078-10.724 0l-17.305 10.992-17.305-10.992c-3.272-2.078-7.451-2.078-10.724 0l-17.303 10.992-17.305-10.992c-3.272-2.078-7.451-2.078-10.724 0l-17.305 10.992-12.666-8.046v-90.107h10.052c5.523 0 10-4.477 10-10s-4.477-10-10-10h-10.052v-20.001h10.052c5.523 0 10-4.477 10-10s-4.477-10-10-10h-10.052v-59.999-90h44.996c5.523 0 10-4.477 10-10s-4.477-10-10-10h-45.416c-3.112-37.537-23.573-70.222-53.326-90h205.746c55.14 0 100 44.86 100 100v159.999h-10.052c-5.523 0-10 4.477-10 10s4.477 10 10 10h10.052v20.001h-10.052c-5.523 0-10 4.477-10 10s4.477 10 10 10h10.052v90.107z"/><path d="m312.729 346h-18.811c-5.523 0-10 4.477-10 10s4.477 10 10 10h18.811c5.523 0 10-4.477 10-10s-4.478-10-10-10z"/><path d="m375.405 346h-18.811c-5.523 0-10 4.477-10 10s4.477 10 10 10h18.811c5.523 0 10-4.477 10-10s-4.477-10-10-10z"/><path d="m438.083 346h-18.811c-5.523 0-10 4.477-10 10s4.477 10 10 10h18.811c5.523 0 10-4.477 10-10s-4.478-10-10-10z"/><path d="m312.729 305.999h-18.811c-5.523 0-10 4.477-10 10s4.477 10 10 10h18.811c5.523 0 10-4.477 10-10s-4.478-10-10-10z"/><path d="m375.405 305.999h-18.811c-5.523 0-10 4.477-10 10s4.477 10 10 10h18.811c5.523 0 10-4.477 10-10s-4.477-10-10-10z"/><path d="m438.083 305.999h-18.811c-5.523 0-10 4.477-10 10s4.477 10 10 10h18.811c5.523 0 10-4.477 10-10s-4.478-10-10-10z"/><path d="m329.993 136c-5.523 0-10 4.477-10 10s4.477 10 10 10h.007c5.523 0 9.997-4.477 9.997-10s-4.481-10-10.004-10z"/></g></g></svg>