<svg id="Capa_1" enable-background="new 0 0 512 512" height="512" viewBox="0 0 512 512" width="512" xmlns="http://www.w3.org/2000/svg"><g><g><path clip-rule="evenodd" d="m420.591 350.927c-33.703 11.08-96.036-50.297-162.819 8.161-50.342 44.006-139.122 24.568-172.712-21.904-19.757-27.345-14.513-69.254-14.513-100.821-.454-3.117-.737-6.291-.85-9.464-.51-15.132 2.098-28.648 7.2-40.691-41.471 28.817-66.897 67.638-66.897 110.341 0 88.891 110.124 160.951 245.986 160.951s246.014-72.06 246.014-160.951c0-46.953-30.755-89.231-79.765-118.644 14.712 19.382 22.365 41.059 21.344 63.133-.142 3.145-.482 6.319-.964 9.464 1.389 23.236 8.079 90.535-22.024 100.425z" fill="#faf7f5" fill-rule="evenodd"/></g><g><path clip-rule="evenodd" d="m438.59 266.257c-23.64 66.789-104.852-35.987-190.881 39.246-67.435 58.996-166.731 2.579-177.162-69.141 0 31.567-5.244 73.476 14.513 100.821 33.59 46.472 122.369 65.91 172.712 21.904 66.783-58.458 129.116 2.919 162.819-8.161 30.103-9.889 23.414-77.188 22.025-100.424-.851 5.243-2.183 10.513-4.026 15.755z" fill="#ffa96b" fill-rule="evenodd"/></g><g><path clip-rule="evenodd" d="m299.809 109.642c-72.254-14.282-192.299 4.364-222.912 76.565-5.102 12.043-7.71 25.559-7.2 40.691.113 3.174.397 6.347.85 9.464 10.431 71.719 109.727 128.137 177.162 69.141 86.03-75.233 167.241 27.543 190.881-39.246 1.842-5.242 3.175-10.513 4.025-15.755.482-3.145.822-6.319.964-9.464 1.02-22.074-6.633-43.751-21.344-63.133-.68-.907-1.389-1.785-2.098-2.692-5.414-6.744-11.679-13.176-18.765-19.24-22.847-19.609-54.027-35.222-91.132-44.063-3.43-.794-6.916-1.559-10.431-2.268z" fill="#ffd4b5" fill-rule="evenodd"/></g><g><path clip-rule="evenodd" d="m393.52 104.088c-15.845-22.499-48.443-47.463-76.08-49.589-8.107 15.33-9.723 37.064-7.2 57.41 37.105 8.841 68.285 24.454 91.132 44.063 4.79-12.581 5.414-28.79-3.345-44.686-1.275-2.324-2.806-4.732-4.507-7.198z" fill="#a0e5a5" fill-rule="evenodd"/></g><g><path clip-rule="evenodd" d="m454.719 82.383c-19.389-2.012-44.05 8.671-61.199 21.706 1.701 2.465 3.231 4.874 4.507 7.197 8.759 15.897 8.135 32.105 3.345 44.686 7.086 6.064 13.351 12.496 18.765 19.24 5.612-2.635 11.027-6.659 15.675-12.383 14.57-17.823 26.674-55.879 18.907-80.446z" fill="#d0f2d2" fill-rule="evenodd"/></g><g><path d="m488.739 224.988c-12.685-18.471-29.953-35.017-51.388-49.32 2.209-1.977 4.284-4.145 6.204-6.509 17.094-20.911 29.491-61.981 20.699-89.791-1.201-3.798-4.541-6.521-8.502-6.932-20.485-2.132-43.595 7.449-60.162 18.042-18.956-22.495-50.307-43.871-77.385-45.949-3.963-.3-7.744 1.775-9.605 5.296-8.369 15.826-9.871 34.85-9.37 49.546-30.703-5.681-67.728-5.552-102.096.426-28.451 4.948-68.695 16.227-98.844 41.858-12.961 11.018-22.767 23.773-29.262 37.879-44.53 31.713-69.028 73.176-69.028 117.015 0 46.479 27.193 89.869 76.569 122.177 48.068 31.452 111.786 48.773 179.417 48.773 11.956 0 23.93-.548 35.59-1.63 5.5-.51 9.544-5.381 9.034-10.881-.51-5.498-5.378-9.552-10.88-9.033-11.049 1.024-22.402 1.544-33.744 1.544-63.786 0-123.615-16.162-168.466-45.509-43.541-28.489-67.52-65.936-67.52-105.441 0-30.073 14.081-59.17 40.156-83.937-.462 4.781-.62 9.656-.454 14.62.108 3.22.404 6.432.842 9.631-.009 5.024-.146 10.31-.294 15.902-.804 30.366-1.714 64.783 16.706 90.276 19.038 26.339 54.738 45.418 93.167 49.79 5.727.652 11.375.975 16.923.975 29.959 0 56.964-9.407 77.312-27.194 39.617-34.681 76.667-22.94 109.355-12.58 18.976 6.014 35.362 11.205 49.998 6.395 35.46-11.649 31.245-74.942 29.219-105.359-.102-1.528-.196-2.943-.277-4.241.451-3.099.767-6.212.915-9.333.468-10.241-.759-20.484-3.568-30.531 27.046 25.065 42 54.978 42 85.586 0 53.306-45.031 103.278-117.52 130.418-5.172 1.937-7.795 7.699-5.859 12.871 1.504 4.018 5.316 6.497 9.367 6.497 1.165 0 2.35-.205 3.505-.638 38.494-14.412 70.894-35.334 93.697-60.504 24.081-26.58 36.81-57.232 36.81-88.645 0-25.009-7.826-49.086-23.261-71.56zm-42.067-132.753c2.75 20.583-6.786 49.811-18.622 64.29-1.773 2.182-3.729 4.099-5.848 5.748-2.927-3.23-6.042-6.39-9.352-9.466 2.842-11.043 4.003-27.76-5.834-45.912 11.889-7.523 26.666-13.783 39.656-14.66zm-123.162-26.713c24.85 5.596 54.553 30.249 65.759 50.59 4.423 8.028 5.705 15.629 5.55 22.054-21.169-15.067-46.682-26.674-75.324-34.239-1.089-14.66.32-28.084 4.015-38.405zm-212.266 91.371c34.275-29.139 89.795-41.778 139.072-41.778 16.964 0 33.19 1.498 47.553 4.337 40.662 8.044 76.628 25.062 101.275 47.919 23.379 21.682 35.612 47.682 34.447 73.194-.357 7.536-1.847 15.059-4.427 22.355-7.372 20.828-19.055 19.931-53.281 11.732-35.808-8.576-84.849-20.321-134.756 23.323 0 0-.001.001-.001.001-27.162 23.762-62.702 28.734-97.508 13.636-37.068-16.078-62.758-50.258-63.926-85.05-.927-27.641 9.688-51.082 31.552-69.669zm306.223 184.533c-8.504 2.795-22.04-1.493-37.712-6.46-33.962-10.763-80.477-25.502-128.565 16.592-19.823 17.329-47.811 24.929-78.806 21.402-33.017-3.757-63.372-19.711-79.218-41.634-8.932-12.362-12.031-28.854-12.929-46.067 13.393 18.907 32.584 34.796 55.421 44.702 15.518 6.73 31.809 10.188 47.732 10.188 3.955 0 7.89-.214 11.782-.644 21.913-2.418 41.805-11.326 59.122-26.476l-.001.001c42.13-36.843 81.87-27.326 116.933-18.928 16.448 3.939 30.651 7.342 43.596 5.513 7.542-1.066 13.928-3.837 19.252-8.327-.464 22.213-3.903 45.965-16.607 50.138z"/><path d="m359.027 240.704c1.14.419 2.306.618 3.453.618 4.071 0 7.897-2.506 9.386-6.549l13.975-37.971c1.907-5.184-.748-10.932-5.931-12.839-5.183-1.905-10.932.748-12.839 5.931l-13.975 37.971c-1.907 5.183.749 10.932 5.931 12.839z"/><path d="m140.825 245.189c.943.278 1.895.411 2.831.411 4.32 0 8.305-2.822 9.588-7.177l20.948-71.096c1.561-5.298-1.468-10.857-6.766-12.419-5.297-1.558-10.858 1.469-12.418 6.767l-20.948 71.096c-1.562 5.298 1.467 10.858 6.765 12.418z"/><path d="m203.327 267.244c.935.272 1.876.402 2.803.402 4.332 0 8.323-2.837 9.596-7.205l30.046-103.088c1.545-5.302-1.5-10.853-6.802-12.398-5.306-1.546-10.854 1.501-12.399 6.803l-30.046 103.088c-1.546 5.301 1.5 10.852 6.802 12.398z"/><path d="m286.083 242.159c1.055.354 2.127.522 3.182.522 4.179 0 8.077-2.642 9.479-6.822l22.988-68.517c1.757-5.235-1.063-10.904-6.3-12.661-5.238-1.761-10.905 1.063-12.661 6.3l-22.988 68.517c-1.756 5.235 1.064 10.904 6.3 12.661z"/><path d="m334.844 439.027c-5.523 0-10 4.478-10 10s4.477 10 10 10h.057c5.523 0 9.972-4.478 9.972-10s-4.506-10-10.029-10z"/></g></g></svg>