<svg id="Capa_1" enable-background="new 0 0 512 512" height="512" viewBox="0 0 512 512" width="512" xmlns="http://www.w3.org/2000/svg"><g><g><path d="m331.056 361.524h-150.705l31.357-294.39 28.407 127.47c-5.641 4.571-9.242 11.553-9.242 19.375 0 13.763 11.163 24.926 24.926 24.926 13.773 0 24.936-11.163 24.936-24.926 0-7.482-3.291-14.183-8.502-18.745l26.877-128.1z" fill="#ffc135"/></g><g><path d="m197.825 197.475-17.474 164.049h-47.277c0-83.95-39.323-176.412-39.323-176.412l-33.988 10.292c.06-.69.09-1.39.09-2.091 0-13.563-10.833-24.606-24.336-24.916l43.55-59.774c18.834-23.836 58.734-20.855 73.067 5.451z" fill="#a0c8ff"/></g><g><path d="m299.109 67.134-26.877 128.1c-4.391-3.861-10.142-6.191-16.434-6.191-5.941 0-11.403 2.08-15.684 5.561l-28.407-127.47c12.663-10.533 28.187-15.804 43.7-15.804 15.515 0 31.039 5.271 43.702 15.804z" fill="#ffc135"/></g><g><circle cx="255.803" cy="213.974" fill="#f9f6f4" r="24.927"/></g><g><circle cx="34.927" cy="193.318" fill="#f9f6f4" r="24.927"/></g><g><path d="m452.145 193.314c0 .7.03 1.4.09 2.091l-33.988-10.292s-39.321 92.462-39.321 176.412h-47.87l-17.644-162.619 46.451-84.83c14.333-26.306 54.233-29.287 73.077-5.451l43.54 59.774c-13.492.309-24.335 11.352-24.335 24.915z" fill="#ff7d95"/></g><g><circle cx="477.073" cy="193.318" fill="#f9f6f4" r="24.927"/></g><g><path d="m133.073 361.519h245.853v99.151h-245.853z" fill="#f9f6f4"/></g><g><path d="m481.803 158.72-40.78-55.984c-21.828-30.118-72.498-25.459-89.932 6.536l-31.173 56.929-10.867-100.146c-.286-2.641-1.68-5.165-3.781-6.795-14.01-11.561-31.703-17.929-49.862-17.929-18.173 0-35.878 6.377-49.892 17.954-2.086 1.65-3.469 4.143-3.752 6.79l-10.503 98.606-30.346-55.391c-17.413-31.959-68.134-36.735-89.931-6.555l-40.79 55.985c-17.027 2.319-30.194 16.945-30.194 34.598 0 19.259 15.669 34.927 34.928 34.927 15.815 0 29.2-10.569 33.485-25.012l19.447-5.889c9.345 24.296 35.214 97.584 35.214 164.18v99.146c0 5.523 4.478 10 10 10h80.051c5.522 0 10-4.477 10-10s-4.478-10-10-10h-70.051v-23.45c8.415 1.163 16.664-1.195 25.215-7.103 7.651-5.333 17.888-5.673 25.609-.229 14.482 10.212 34.05 9.924 48.505-.12 7.533-5.205 17.622-5.156 25.104.12 14.481 10.213 34.051 9.924 48.506-.12 7.533-5.205 17.621-5.156 25.104.12 7.251 5.114 14.562 7.67 21.885 7.67 1.975 0 3.95-.193 5.925-.565v23.676h-67.812c-5.522 0-10 4.477-10 10s4.478 10 10 10h77.812c5.522 0 10-4.477 10-10v-99.146c0-66.601 25.869-139.89 35.211-164.18l19.45 5.89c4.285 14.443 17.67 25.011 33.484 25.011 19.259 0 34.928-15.668 34.928-34.927 0-17.653-13.168-32.28-30.197-34.597zm-274.034 39.814v-.001l7.431-69.759 13.954 62.616c-5.326 6.264-8.28 14.373-8.28 22.59 0 19.258 15.668 34.926 34.926 34.926 19.264 0 34.936-15.668 34.936-34.926 0-7.868-2.728-15.656-7.643-21.802l12.871-61.346 23.95 220.689h-128.441l15.225-142.933zm45.062.812c7.859-1.595 15.924 3.693 17.561 11.546 1.756 8.427-4.156 16.729-12.673 17.858-7.893 1.047-15.392-4.578-16.653-12.437-1.236-7.703 4.104-15.431 11.765-16.967zm35.186-128.045-17.332 82.606-5.541 26.409c-5.842-1.624-12.135-1.684-18.008-.179l-24.265-108.884c9.581-6.432 20.931-9.923 32.537-9.923 11.634 0 23.012 3.508 32.609 9.971zm-253.089 136.944c-8.231 0-14.928-6.696-14.928-14.927s6.696-14.927 14.928-14.927c8.245 0 15.123 7.083 14.907 15.309-.205 8.053-6.806 14.545-14.907 14.545zm68.024-27.047c-1.998-4.697-7.209-7.137-12.101-5.657l-22.744 6.888c-2.755-8.372-8.59-15.353-16.164-19.597l35.082-48.151c14.119-17.65 45.311-16.042 56.338 4.198l44.186 80.651-16.189 151.99h-28.459c-2.784-82.031-38.375-166.621-39.949-170.322zm249.691 222.346c-14.306-10.087-33.595-10.181-48-.229-7.652 5.334-17.888 5.674-25.61.229-14.308-10.089-33.595-10.181-48-.229-7.652 5.333-17.887 5.674-25.609.229-14.481-10.211-34.05-9.924-48.505.12-5.458 3.77-9.185 4.766-13.845 3.099v-35.24h225.854v34.625c-5.518 2.481-10.292 1.621-16.285-2.604zm68.503-228.003c-4.888-1.481-10.104.959-12.101 5.657-1.574 3.701-37.163 88.291-39.946 170.321h-29.069l-16.337-150.568 44.952-82.092c11.028-20.242 42.227-21.809 56.338-4.177l35.073 48.15c-7.573 4.244-13.408 11.225-16.163 19.597zm55.926 32.704c-8.223 0-14.914-6.685-14.926-14.906 0-8.092 6.825-14.949 14.926-14.949 8.231 0 14.928 6.696 14.928 14.927s-6.696 14.928-14.928 14.928z"/><path d="m266.29 456.85c-3.528-8.606-16.379-7.793-18.866 1.156-2.43 8.744 7.655 15.967 15.185 10.974 3.921-2.6 5.49-7.788 3.681-12.13z"/></g></g></svg>