<svg id="Layer_1" enable-background="new 0 0 512.001 512.001" height="512" viewBox="0 0 512.001 512.001" width="512" xmlns="http://www.w3.org/2000/svg"><g><g clip-rule="evenodd" fill-rule="evenodd"><path d="m366.001 10h-220c-5.5 0-10 4.5-10 10v50h240v-50c0-5.5-4.5-10-10-10z" fill="#ff9c9b"/><path d="m376.001 70h-240c-22 0-40 18-40 40v20h239.998c11 0 20 9.003 20 20v272c0 10.997-9.003 20-20 20h-239.998v40.001c0 11 8.999 20 19.999 20h280.001c11 0 20-9 20-20v-372.001c0-22.001-18-40-40-40z" fill="#ff5a58"/><path d="m335.999 130h-239.998v312h239.998c10.997 0 20-9.003 20-20v-272c-.001-10.997-9-20-20-20zm-169.624 122.094c0-28.497 23.101-51.598 51.598-51.598 2.73 0 5.41.214 8.027.622.754-.118 1.514-.219 2.279-.304 1.887-.21 3.804-.318 5.747-.318 28.497 0 51.598 23.102 51.598 51.598s-23.102 51.599-51.598 51.599c-2.73 0-5.411-.214-8.026-.622-2.616.408-5.296.622-8.027.622-28.497-.001-51.598-23.102-51.598-51.599z" fill="#fff"/><path d="m217.973 200.495c-28.497 0-51.598 23.102-51.598 51.598s23.101 51.599 51.598 51.599c2.73 0 5.41-.214 8.027-.622 2.616.408 5.296.622 8.026.622 28.497 0 51.598-23.102 51.598-51.599s-23.102-51.598-51.598-51.598c-1.943 0-3.86.108-5.747.318-.765.085-1.525.187-2.279.304-2.616-.408-5.297-.622-8.027-.622z" fill="#ff5a58"/></g><g><path d="m386.001 61.006v-41.006c0-11.028-8.972-20-20-20h-220.001c-11.028 0-20 8.972-20 20v41.006c-22.794 4.645-39.999 24.847-39.999 48.994v372.002c0 16.542 13.457 30 29.999 30h280.001c16.542 0 29.999-13.458 29.999-30v-372.002c0-24.147-17.204-44.348-39.999-48.994zm-20-1.006h-20.001v-40h20.001zm-180.001 0v-40h20v40zm40-40h20v40h-20zm40 0h20v40h-20zm40 0h20v40h-20zm-140 0v40h-20l-.002-40zm240 462.002c0 5.514-4.485 10-9.999 10h-280.001c-5.514 0-9.999-4.486-9.999-10v-30.002h229.997c16.542 0 30-13.458 30-30v-272c0-16.542-13.458-30-30-30h-65.002c-5.522 0-10 4.477-10 10s4.478 10 10 10h65.002c5.514 0 10 4.486 10 10v272c0 5.514-4.486 10-10 10h-229.997v-292h74.995c5.522 0 10-4.477 10-10s-4.478-10-10-10h-74.995v-10c0-16.542 13.458-30 29.999-30h240c16.542 0 30 13.458 30 30z"/><path d="m250.15 187.965c5.335-1.429 8.501-6.913 7.071-12.247s-6.909-8.5-12.247-7.071c-8.912 2.387-17.51 11.665-22.993 21.979-1.336-.087-2.674-.13-4.008-.13-33.966 0-61.599 27.633-61.599 61.599 0 33.965 27.633 61.598 61.599 61.598 2.677 0 5.37-.175 8.026-.521 2.656.346 5.35.521 8.026.521 33.966 0 61.599-27.633 61.599-61.598 0-30.06-21.648-55.143-50.169-60.519 1.722-1.917 3.385-3.26 4.695-3.611zm25.474 64.129c0 22.938-18.661 41.598-41.599 41.598-2.166 0-4.348-.169-6.483-.503-.511-.08-1.027-.12-1.543-.12s-1.032.04-1.543.12c-2.136.333-4.317.503-6.483.503-22.938 0-41.599-18.661-41.599-41.598 0-22.281 17.609-40.523 39.641-41.549-.004.191-.016.385-.016.573 0 5.523 4.478 10 10 10s10-4.477 10-10c0-.186.01-.379.021-.572 22.015 1.045 39.604 19.279 39.604 41.548z"/><path d="m282.75 343.693h-120.75c-5.522 0-10 4.477-10 10s4.478 10 10 10h120.75c5.522 0 10-4.477 10-10s-4.477-10-10-10z"/><path d="m282.75 383.695h-120.75c-5.522 0-10 4.477-10 10s4.478 10 10 10h120.75c5.522 0 10-4.477 10-10s-4.477-10-10-10z"/><path d="m225.999 140c5.522 0 10-4.477 10-10s-4.478-10-10-10h-.007c-5.522 0-9.996 4.477-9.996 10s4.481 10 10.003 10z"/></g></g></svg>