<svg id="Capa_1" enable-background="new 0 0 511.822 511.822" height="512" viewBox="0 0 511.822 511.822" width="512" xmlns="http://www.w3.org/2000/svg"><g><g><path clip-rule="evenodd" d="m18.911 122.865c0 62.418 95.39 113.044 213.06 113.044 117.699 0 213.089-50.626 213.089-113.044 0-62.446-95.39-113.043-213.089-113.043-117.671 0-213.06 50.597-213.06 113.043zm136.493 9.042c18.483 0 33.478 9.949 33.478 22.223 0 12.245-14.996 22.195-33.478 22.195-18.483 0-33.45-9.949-33.45-22.195 0-12.273 14.968-22.223 33.45-22.223zm188.398 25.058c-18.483 0-33.45-9.921-33.45-22.195s14.968-22.223 33.45-22.223c18.483 0 33.479 9.949 33.479 22.223s-14.996 22.195-33.479 22.195z" fill="#fff2a0" fill-rule="evenodd"/></g><g><path clip-rule="evenodd" d="m121.954 154.131c0 12.245 14.968 22.195 33.45 22.195 18.483 0 33.478-9.949 33.478-22.195 0-12.274-14.996-22.223-33.478-22.223-18.482-.001-33.45 9.949-33.45 22.223z" fill="#ffea60" fill-rule="evenodd"/></g><g><path clip-rule="evenodd" d="m310.352 134.77c0 12.274 14.968 22.195 33.45 22.195 18.483 0 33.479-9.921 33.479-22.195s-14.996-22.223-33.479-22.223c-18.482 0-33.45 9.95-33.45 22.223z" fill="#ffea60" fill-rule="evenodd"/></g><g><path clip-rule="evenodd" d="m18.911 243.732c0 48.868 58.481 90.508 140.349 106.269v-37.303c0-14.598 11.963-26.56 26.562-26.56h54.881c5.216 0 9.44 4.252 9.44 9.439v7.143c0 20.551 16.81 37.332 37.334 37.332 20.552 0 37.334-16.781 37.334-37.332v-7.143c0-5.187 4.252-9.439 9.44-9.439h27.355 67.921c10.007-13.096 15.535-27.411 15.535-42.405v-120.868c0 62.418-95.39 113.044-213.089 113.044-117.671 0-213.06-50.626-213.06-113.044v120.867z" fill="#ffea60" fill-rule="evenodd"/></g><g><path clip-rule="evenodd" d="m159.26 350.001v125.261c0 14.598 11.963 26.56 26.562 26.56h51.224c0-27.581 22.338-49.917 49.892-49.917s49.892 22.337 49.892 49.917h102.958c29.226 0 53.123-23.924 53.123-53.12v-109.444c0-29.196-23.897-53.12-53.123-53.12h-10.262-67.921-27.355c-5.188 0-9.44 4.252-9.44 9.439v7.143c0 20.551-16.782 37.332-37.334 37.332-20.524 0-37.334-16.781-37.334-37.332v-7.143c0-5.187-4.224-9.439-9.44-9.439h-54.881c-14.599 0-26.562 11.962-26.562 26.56v37.303zm70.812 18.17c13.21 0 23.925 10.715 23.925 23.952 0 13.238-10.715 23.952-23.925 23.952-13.238 0-23.954-10.715-23.954-23.952 0-13.238 10.716-23.952 23.954-23.952zm126.147 6.831c0-18.51 14.996-33.477 33.479-33.477 18.511 0 33.507 14.967 33.507 33.477 0 18.482-14.996 33.477-33.507 33.477-18.483-.001-33.479-14.996-33.479-33.477z" fill="#fff2a0" fill-rule="evenodd"/></g><g><path clip-rule="evenodd" d="m206.118 392.123c0 13.238 10.715 23.952 23.954 23.952 13.21 0 23.925-10.715 23.925-23.952 0-13.238-10.715-23.952-23.925-23.952-13.238 0-23.954 10.714-23.954 23.952z" fill="#ffea60" fill-rule="evenodd"/></g><g><path clip-rule="evenodd" d="m237.045 501.822h99.784c0-27.581-22.338-49.917-49.892-49.917-27.554-.001-49.892 22.336-49.892 49.917z" fill="#ffea60" fill-rule="evenodd"/></g><g><path clip-rule="evenodd" d="m356.219 375.002c0 18.482 14.996 33.477 33.479 33.477 18.511 0 33.507-14.995 33.507-33.477 0-18.51-14.996-33.477-33.507-33.477-18.483 0-33.479 14.967-33.479 33.477z" fill="#ffea60" fill-rule="evenodd"/></g><g><path d="m389.697 331.525c-23.974 0-43.479 19.503-43.479 43.477s19.505 43.477 43.479 43.477c23.99 0 43.507-19.503 43.507-43.477s-19.517-43.477-43.507-43.477zm0 66.953c-12.946 0-23.479-10.532-23.479-23.477s10.532-23.477 23.479-23.477c12.962 0 23.507 10.532 23.507 23.477s-10.545 23.477-23.507 23.477z"/><path d="m311.94 397.911c-5.522 0-10 4.477-10 10s4.478 10 10 10h.057c5.522 0 9.972-4.477 9.972-10s-4.506-10-10.029-10z"/><path d="m378.16 447.404c-5.522 0-10 4.477-10 10s4.478 10 10 10h.057c5.522 0 9.972-4.477 9.972-10s-4.507-10-10.029-10z"/><path d="m230.072 358.171c-18.723 0-33.954 15.231-33.954 33.952s15.231 33.952 33.954 33.952c18.707 0 33.926-15.231 33.926-33.952s-15.219-33.952-33.926-33.952zm0 47.904c-7.694 0-13.954-6.259-13.954-13.952s6.26-13.952 13.954-13.952c7.679 0 13.926 6.259 13.926 13.952s-6.247 13.952-13.926 13.952z"/><path d="m447.211 276.589c5.158-10.506 7.794-21.395 7.843-32.541 0-.046.007-.091.007-.137v-120.867c0-14.801-4.543-29.194-13.501-42.78-3.041-4.611-9.242-5.886-13.854-2.843-4.611 3.04-5.884 9.243-2.844 13.854 6.768 10.261 10.198 20.95 10.198 31.77 0 26.312-20.276 51.561-57.094 71.095-38.831 20.603-90.68 31.949-145.995 31.949-55.303 0-107.143-11.346-145.97-31.948-36.815-19.535-57.091-44.784-57.091-71.095 0-26.321 20.275-51.574 57.09-71.105 38.822-20.598 90.663-31.941 145.971-31.941 46.244 0 89.879 7.849 126.188 22.698 5.113 2.091 10.95-.359 13.041-5.471s-.358-10.951-5.471-13.041c-38.688-15.823-84.941-24.186-133.758-24.186-58.518 0-113.687 12.171-155.343 34.271-43.668 23.167-67.717 54.694-67.717 88.773v120.867c0 .032.004.062.005.094.101 26.858 15.135 52.2 43.501 73.301 24.759 18.418 58.111 32.469 96.843 40.856v117.1c0 20.159 16.401 36.56 36.562 36.56h253.967c34.806 0 63.123-28.315 63.123-63.12v-109.444c-.001-32.293-24.383-58.982-55.701-62.669zm-297.952 36.109v24.955c-34.122-7.855-63.306-20.326-84.906-36.393-16.169-12.028-35.442-31.772-35.442-57.526v-69.06c11.375 13.792 27.424 26.366 47.717 37.133 41.662 22.107 96.831 34.282 155.344 34.282 58.525 0 113.702-12.175 155.368-34.281 20.295-10.768 36.345-23.341 47.721-37.134v69.061c0 11.022-3.591 21.903-10.667 32.405h-90.144c-10.72 0-19.44 8.721-19.44 19.439v7.143c0 15.071-12.262 27.332-27.333 27.332-15.072 0-27.334-12.261-27.334-27.332v-7.143c0-10.719-8.721-19.439-19.439-19.439h-54.882c-20.161-.003-36.563 16.398-36.563 36.558zm99.055 179.124c4.447-17.186 20.077-29.917 38.623-29.917s34.176 12.731 38.623 29.917zm234.597-43.121c0 23.776-19.345 43.12-43.123 43.12h-93.809c-4.774-28.293-29.424-49.917-59.042-49.917s-54.268 21.624-59.042 49.917h-42.075c-9.132 0-16.562-7.429-16.562-16.56v-125.367c0-.011 0-.022 0-.033v-37.164c0-9.131 7.43-16.56 16.562-16.56h54.321v6.583c0 26.099 21.234 47.332 47.334 47.332s47.333-21.233 47.333-47.332v-6.583h94.697.012.009 10.261c23.778 0 43.123 19.344 43.123 43.12v109.444z"/><path d="m111.955 154.309c0 18.053 19.085 32.195 43.449 32.195 24.381 0 43.479-14.142 43.479-32.195 0-18.069-19.098-32.223-43.479-32.223-24.364 0-43.449 14.154-43.449 32.223zm66.927 0c0 5.64-10.256 12.195-23.479 12.195-13.206 0-23.449-6.555-23.449-12.195 0-5.652 10.243-12.223 23.449-12.223 13.224 0 23.479 6.571 23.479 12.223z"/><path d="m65.713 236.964c-5.522 0-10 4.477-10 10s4.478 10 10 10h.057c5.522 0 9.972-4.477 9.972-10s-4.507-10-10.029-10z"/><path d="m289.772 282.588h.057c5.522 0 9.972-4.477 9.972-10s-4.506-10-10.028-10-10 4.477-10 10 4.477 10 9.999 10z"/><path d="m90.694 98.808c0 5.523 4.478 10 10 10h.057c5.522 0 9.972-4.477 9.972-10s-4.506-10-10.028-10-10.001 4.477-10.001 10z"/><path d="m176.807 82.531c5.522 0 9.972-4.477 9.972-10s-4.506-10-10.028-10-10 4.477-10 10 4.478 10 10 10z"/><path d="m255.634 111.952c0-5.523-4.506-10-10.028-10s-10 4.477-10 10 4.478 10 10 10h.057c5.522 0 9.971-4.477 9.971-10z"/><path d="m258.561 179.012h.057c5.522 0 9.972-4.477 9.972-10s-4.506-10-10.028-10-10 4.477-10 10 4.477 10 9.999 10z"/><path d="m275.152 57.188c0-5.523-4.491-10-10.014-10s-10 4.477-10 10 4.478 10 10 10h.028c5.523 0 9.986-4.477 9.986-10z"/><path d="m320.614 77.08c5.522 0 9.972-4.477 9.972-10s-4.506-10-10.028-10-10 4.477-10 10 4.478 10 10 10z"/><path d="m402.369 251.266h.057c5.522 0 9.972-4.477 9.972-10s-4.506-10-10.028-10-10 4.477-10 10 4.476 10 9.999 10z"/><path d="m122.38 272.339c-5.522 0-10 4.477-10 10s4.478 10 10 10h.057c5.522 0 9.972-4.477 9.972-10s-4.507-10-10.029-10z"/><path d="m300.352 134.77c0 18.053 19.086 32.195 43.45 32.195 24.381 0 43.479-14.142 43.479-32.195 0-18.069-19.098-32.223-43.479-32.223-24.364 0-43.45 14.154-43.45 32.223zm66.929 0c0 5.64-10.256 12.195-23.479 12.195-13.207 0-23.45-6.555-23.45-12.195 0-5.652 10.243-12.223 23.45-12.223 13.223 0 23.479 6.571 23.479 12.223z"/><path d="m401.32 64.475c2.56 0 5.118-.976 7.071-2.929 3.905-3.905 3.905-10.237 0-14.143l-.028-.028c-3.905-3.905-10.223-3.891-14.128.014s-3.892 10.251.014 14.157c1.953 1.953 4.511 2.929 7.071 2.929z"/></g></g></svg>