<svg id="Capa_1" enable-background="new 0 0 512.001 512.001" height="512" viewBox="0 0 512.001 512.001" width="512" xmlns="http://www.w3.org/2000/svg"><g><g><path d="m250.001 422h252v80h-252z" fill="#eefaff"/><path d="m416.001 422v40h-80v-40c0-11.05 8.95-20 20-20h40c11.05 0 20 8.95 20 20z" fill="#c1b0b5"/><path d="m356.001 170h40v232h-40z" fill="#ff7b79"/><path d="m356.001 130h40v40h-40z" fill="#ffda8f"/><path d="m396.001 30v100h-40v-100c0-11.05 8.95-20 20-20s20 8.95 20 20z" fill="#ff7b79"/><path d="m90.001 502v-40c0 22.09-17.91 40-40 40h-40c24.51-12.26 40-37.31 40-64.72v-75.28c0-11.05 8.95-20 20-20h120c11.05 0 20 8.95 20 20v67.64c0 39.96-32.4 72.36-72.36 72.36z" fill="#ffda8f"/><path d="m170.001 322v20h-80v-20c0-11.05 8.95-20 20-20h40c11.05 0 20 8.95 20 20z" fill="#c1b0b5"/><path d="m110.001 262h40v40h-40z" fill="#ff7b79"/><path d="m110.001 222h40v40h-40z" fill="#c1b0b5"/><path d="m150.001 30v192h-40v-192c0-11.05 8.95-20 20-20s20 8.95 20 20z" fill="#ff7b79"/></g><g><path d="m10.001 512h40c11.246 0 21.638-3.733 30-10.023v.023c0 5.523 4.478 10 10 10h47.64c45.414 0 82.36-36.946 82.36-82.36v-67.64c0-16.542-13.458-30-30-30h-10v-10c0-13.038-8.359-24.159-20-28.287v-263.713c0-16.542-13.458-30-30-30s-30 13.458-30 30v263.713c-11.641 4.127-20 15.249-20 28.287v10h-10c-16.542 0-30 13.458-30 30v75.28c0 23.768-13.21 45.14-34.474 55.777-4.147 2.074-6.324 6.729-5.259 11.242 1.067 4.513 5.095 7.701 9.733 7.701zm110-220v-20h20v20zm20-40h-20v-20h20zm-10-232c5.514 0 10 4.486 10 10v182h-20v-182c0-5.514 4.486-10 10-10zm-30 302c0-5.514 4.486-10 10-10h40c5.514 0 10 4.486 10 10v10h-60zm-40 115.28v-75.28c0-5.514 4.486-10 10-10h120c5.514 0 10 4.486 10 10v67.64c0 33.943-27.265 61.62-61.042 62.326 12.973-12.713 21.042-30.411 21.042-49.967v-40c0-5.523-4.478-10-10-10s-10 4.477-10 10v40c0 24.146-17.205 44.348-40 48.994v-48.993c0-5.523-4.478-10-10-10s-10 4.477-10 10v20c0 16.542-13.458 30-30 30h-10.722c13.167-14.776 20.722-34.064 20.722-54.72z"/><path d="m90.001 412c5.522 0 10-4.477 10-10v-20c0-5.523-4.478-10-10-10s-10 4.477-10 10v20c0 5.523 4.477 10 10 10z"/><circle cx="376.001" cy="502" r="10"/><path d="m502.001 412h-77.72c-3.018-8.509-9.771-15.262-18.28-18.28v-363.72c0-16.542-13.458-30-30-30s-30 13.458-30 30v363.72c-8.509 3.018-15.262 9.771-18.28 18.28h-77.72c-5.522 0-10 4.477-10 10v80c0 5.523 4.478 10 10 10h81c5.522 0 10-4.477 10-10s-4.478-10-10-10h-71v-60h66v20h-36c-5.522 0-10 4.477-10 10s4.478 10 10 10h172c5.522 0 10-4.477 10-10s-4.478-10-10-10h-36v-20h66v60h-71c-5.522 0-10 4.477-10 10s4.478 10 10 10h81c5.522 0 10-4.477 10-10v-80c0-5.522-4.478-10-10-10zm-136-20v-212h20v212zm20-232h-20v-20h20zm-10-140c5.514 0 10 4.486 10 10v90h-20v-90c0-5.514 4.486-10 10-10zm-30 402c0-5.514 4.486-10 10-10h40c5.514 0 10 4.486 10 10v30h-60z"/></g></g></svg>