<svg id="Capa_1" enable-background="new 0 0 512 512" height="512" viewBox="0 0 512 512" width="512" xmlns="http://www.w3.org/2000/svg"><g><path d="m50.406 462h-20.405c-11.046 0-20-8.954-20-20v-412c0-11.046 8.954-20 20-20h304c11.046 0 20 8.954 20 20v20z" fill="#fff3da"/><path d="m374.406 502h-304c-11.046 0-20-8.954-20-20v-412c0-11.046 8.954-20 20-20h304c11.046 0 20 8.954 20 20v412c0 11.046-8.954 20-20 20z" fill="#fff"/><circle cx="222.406" cy="184.245" fill="#ff7d97" r="71.882"/><path d="m240.657 175.196-20.802-12.01c-6.966-4.022-15.674 1.005-15.674 9.049v24.02c0 8.044 8.708 13.071 15.674 9.049l20.802-12.01c6.966-4.021 6.966-14.076 0-18.098z" fill="#fff"/><g><path d="m414.295 399.365-52.265 48.635-7.709-70.976 86.458-232.099c3.812-10.234 15.199-15.44 25.433-11.628l22.913 8.535c10.234 3.812 15.44 15.199 11.628 25.433z" fill="#a0e5a5"/><path d="m414.295 399.365-52.265 48.635-7.709-70.976z" fill="#93a7bb"/></g><g><path d="m222.406 266.127c45.149 0 81.882-36.732 81.882-81.882s-36.732-81.882-81.882-81.882-81.882 36.732-81.882 81.882 36.733 81.882 81.882 81.882zm0-143.764c34.122 0 61.882 27.76 61.882 61.882s-27.76 61.882-61.882 61.882-61.882-27.76-61.882-61.882 27.76-61.882 61.882-61.882z"/><path d="m204.406 213.965c3.201 1.848 6.713 2.772 10.224 2.772 3.512 0 7.023-.924 10.225-2.772l20.803-12.01c6.402-3.696 10.225-10.317 10.225-17.709s-3.822-14.013-10.225-17.709l-20.803-12.01c-6.4-3.696-14.044-3.697-20.448 0-6.402 3.696-10.225 10.317-10.225 17.71v24.02c-.001 7.391 3.822 14.012 10.224 17.708zm9.775-41.73c0-.134 0-.26.225-.389.095-.055.17-.075.232-.075.085 0 .149.037.216.075l20.803 12.01c.115.067.225.129.225.389s-.109.322-.225.389l-20.803 12.01c-.116.066-.225.13-.448 0-.225-.129-.225-.255-.225-.389z"/><path d="m334.726 300h-226.206c-5.522 0-10 4.477-10 10s4.478 10 10 10h226.206c5.522 0 10-4.477 10-10s-4.477-10-10-10z"/><path d="m307.864 346h-199.344c-5.522 0-10 4.477-10 10s4.478 10 10 10h199.344c5.522 0 10-4.477 10-10s-4.478-10-10-10z"/><path d="m307.864 392h-199.344c-5.522 0-10 4.477-10 10s4.478 10 10 10h199.344c5.522 0 10-4.477 10-10s-4.478-10-10-10z"/><path d="m307.864 438h-199.344c-5.522 0-10 4.477-10 10s4.478 10 10 10h199.344c5.522 0 10-4.477 10-10s-4.478-10-10-10z"/><path d="m492.616 132.461-22.913-8.535c-7.45-2.775-15.54-2.483-22.773.823-7.233 3.307-12.746 9.233-15.521 16.685l-27.002 72.487v-143.921c0-16.542-13.458-30-30-30h-10.404v-10c0-16.542-13.458-30-30-30h-304c-16.542 0-30 13.458-30 30v412c0 16.542 13.458 30 30 30h10.404v10c0 16.542 13.458 30 30 30h304c16.542 0 30-13.458 30-30v-59.773l16.701-15.541c1.139-1.061 2.016-2.372 2.559-3.83l86.458-232.099c5.73-15.385-2.124-32.564-17.509-38.296zm-108.21 349.539c0 5.514-4.486 10-10 10h-304c-5.514 0-10-4.486-10-10v-161c0-5.523-4.478-10-10-10s-10 4.477-10 10v131h-10.404c-5.514 0-10-4.486-10-10v-412c0-5.514 4.486-10 10-10h304c5.514 0 10 4.486 10 10v10h-273.596c-16.542 0-30 13.458-30 30v161c0 5.523 4.478 10 10 10s10-4.477 10-10v-161c0-5.514 4.486-10 10-10h304c5.514 0 10 4.486 10 10v197.613l-39.456 105.92c-.543 1.458-.738 3.023-.57 4.57l7.709 70.976c.408 3.762 2.905 6.971 6.45 8.292 1.137.423 2.317.629 3.489.629 2.486 0 4.932-.928 6.814-2.679l15.563-14.483v41.162zm-14.588-54.907-3.806-35.042 29.61 11.03zm121.564-263.318-82.967 222.727-41.232-15.359 82.967-222.728c.911-2.446 2.721-4.391 5.095-5.477 2.377-1.085 5.032-1.182 7.477-.271l22.912 8.535c5.05 1.883 7.629 7.523 5.748 12.573z"/><circle cx="50.406" cy="276.002" r="10"/></g></g></svg>