<svg id="Capa_1" enable-background="new 0 0 512 512" height="512" viewBox="0 0 512 512" width="512" xmlns="http://www.w3.org/2000/svg"><g id="XMLID_1192_"><path id="XMLID_1437_" d="m32 430h448v72h-448z" fill="#8aa8bd"/><path id="XMLID_1418_" d="m442.092 430h-372.184l45.747-266.109c3.167-18.426 19.145-31.891 37.84-31.891h205.009c18.695 0 34.673 13.465 37.841 31.891z" fill="#ff7d97"/><g id="XMLID_1407_" fill="#fff"><path id="XMLID_1417_" d="m290.209 286.376c-1.558-6.466-4.975-12.574-10.257-17.473-13.368-12.398-34.281-12.398-47.649 0-5.282 4.899-8.699 11.007-10.257 17.473-1.237 5.133-4.804 9.338-9.584 11.58-12.151 5.7-20.497 18.161-20.182 32.542.406 18.564 15.463 33.734 34.024 34.27 7.58.219 14.634-1.97 20.461-5.856 5.654-3.772 13.072-3.772 18.726 0 5.826 3.887 12.881 6.075 20.461 5.856 18.561-.536 33.618-15.705 34.024-34.27.315-14.381-8.032-26.842-20.182-32.542-4.781-2.242-8.348-6.447-9.585-11.58z"/><ellipse id="XMLID_1416_" cx="230.07" cy="235.325" rx="25.39" ry="30.542"/><ellipse id="XMLID_1415_" cx="312.703" cy="276.118" rx="25.064" ry="21.711" transform="matrix(.425 -.905 .905 .425 -70.199 441.678)"/><ellipse id="XMLID_1412_" cx="282.184" cy="235.325" rx="25.39" ry="30.542"/><ellipse id="XMLID_1409_" cx="199.297" cy="276.118" rx="21.711" ry="25.064" transform="matrix(.905 -.425 .425 .905 -98.519 110.993)"/></g><g id="XMLID_552_"><path id="XMLID_555_" d="m480 420h-29.48l-44.319-257.804c-4.005-23.291-24.063-40.196-47.696-40.196h-205.009c-23.633 0-43.692 16.905-47.696 40.196l-44.32 257.804h-29.48c-5.523 0-10 4.477-10 10v72c0 5.523 4.477 10 10 10h448c5.522 0 10-4.477 10-10v-72c0-5.523-4.478-10-10-10zm-10 72h-428v-52h169.793c5.523 0 10-4.477 10-10s-4.477-10-10-10h-130.019l43.737-254.415c2.348-13.666 14.118-23.585 27.985-23.585h205.009c13.866 0 25.636 9.919 27.985 23.585l43.736 254.415h-128.433c-5.522 0-10 4.477-10 10s4.478 10 10 10h168.207z"/><path id="XMLID_558_" d="m329.973 330.717c.183-8.34-1.948-16.371-5.921-23.331 7.496-3.6 13.635-9.873 17.352-17.78 8.223-17.498 2.039-37.785-13.786-45.222-3.342-1.571-6.878-2.469-10.48-2.71.285-2.069.437-4.189.437-6.349 0-22.355-15.876-40.542-35.391-40.542-10.3 0-19.584 5.07-26.057 13.142-6.473-8.072-15.756-13.142-26.056-13.142-19.515 0-35.391 18.187-35.391 40.542 0 2.163.152 4.285.438 6.358-3.652.201-7.283 1.079-10.736 2.701-15.825 7.438-22.009 27.725-13.785 45.222 3.749 7.978 9.966 14.291 17.553 17.875-3.938 6.939-6.05 14.933-5.869 23.235.525 24.006 20.403 43.364 44.401 44.057.446.013-.445 0 0 0 8.932 0 18.204-2.589 25.631-7.542 2.282-1.521 5.348-1.521 7.628 0 7.797 5.2 16.89 7.811 26.298 7.532 23.998-.692 43.208-20.04 43.734-44.046zm-6.671-49.617c-1.824 3.883-4.771 6.883-8.298 8.447-1.757.78-5.226 1.841-8.708.204-3.485-1.638-4.879-4.985-5.399-6.834-1.046-3.714-.617-7.897 1.207-11.78h.001c1.824-3.883 4.771-6.883 8.298-8.448 1.08-.479 2.806-1.065 4.785-1.065 1.24 0 2.58.23 3.922.861 5.745 2.7 7.665 11.225 4.192 18.615zm-41.118-66.317c8.343 0 15.391 9.407 15.391 20.542s-7.048 20.542-15.391 20.542-15.39-9.407-15.39-20.542 7.047-20.542 15.39-20.542zm-52.114 0c8.342 0 15.39 9.407 15.39 20.542s-7.048 20.542-15.39 20.542c-8.343 0-15.391-9.407-15.391-20.542s7.049-20.542 15.391-20.542zm-37.18 47.702c1.228-.577 2.549-.85 3.902-.85 4.976 0 10.374 3.691 13.105 9.502 1.825 3.883 2.253 8.066 1.208 11.78-.521 1.85-1.915 5.197-5.4 6.834-3.484 1.637-6.951.575-8.707-.204-3.527-1.565-6.474-4.565-8.299-8.448-3.474-7.389-1.554-15.914 4.191-18.614zm92.771 92.287c-5.243.14-10.296-1.293-14.621-4.179-4.53-3.022-9.721-4.533-14.913-4.533-5.191 0-10.383 1.511-14.912 4.532-4.327 2.886-9.377 4.317-14.624 4.18-13.343-.386-24.023-11.144-24.315-24.493-.217-9.921 5.448-19.055 14.432-23.27 7.631-3.58 13.119-10.246 15.059-18.291 1.153-4.785 3.69-9.102 7.336-12.483 9.546-8.853 24.501-8.854 34.048 0 3.646 3.381 6.182 7.697 7.336 12.482 1.938 8.045 7.427 14.712 15.059 18.292 8.984 4.214 14.648 13.348 14.431 23.27-.292 13.349-10.973 24.108-24.316 24.493z"/><path id="XMLID_563_" d="m256 85.833c5.522 0 10-4.477 10-10v-65.833c0-5.523-4.478-10-10-10-5.523 0-10 4.477-10 10v65.833c0 5.523 4.477 10 10 10z"/><path id="XMLID_564_" d="m502 246h-44.833c-5.522 0-10 4.477-10 10s4.478 10 10 10h44.833c5.522 0 10-4.477 10-10s-4.478-10-10-10z"/><path id="XMLID_565_" d="m440.259 159.625c1.696 0 3.416-.432 4.99-1.341l55.056-31.786c4.783-2.761 6.422-8.877 3.66-13.66-2.761-4.782-8.877-6.421-13.66-3.66l-55.056 31.786c-4.783 2.761-6.422 8.877-3.66 13.66 1.852 3.208 5.213 5.001 8.67 5.001z"/><path id="XMLID_566_" d="m351.396 90.77c1.575.909 3.294 1.341 4.99 1.341 3.456 0 6.817-1.793 8.67-5.001l34.613-59.951c2.762-4.783 1.123-10.899-3.66-13.66-4.784-2.761-10.898-1.122-13.66 3.66l-34.614 59.951c-2.761 4.783-1.123 10.899 3.661 13.66z"/><path id="XMLID_567_" d="m64.833 256c0-5.523-4.477-10-10-10h-44.833c-5.523 0-10 4.477-10 10s4.477 10 10 10h44.833c5.523 0 10-4.477 10-10z"/><path id="XMLID_568_" d="m11.695 126.498 55.056 31.786c1.575.909 3.294 1.341 4.991 1.341 3.456 0 6.817-1.793 8.669-5.001 2.762-4.783 1.123-10.899-3.66-13.66l-55.056-31.786c-4.782-2.76-10.898-1.123-13.66 3.66-2.762 4.783-1.122 10.898 3.66 13.66z"/><path id="XMLID_569_" d="m146.944 87.11c1.852 3.208 5.213 5.001 8.669 5.001 1.696 0 3.416-.432 4.991-1.341 4.783-2.761 6.422-8.877 3.66-13.66l-34.613-59.951c-2.761-4.784-8.878-6.422-13.66-3.66-4.783 2.761-6.422 8.877-3.66 13.66z"/><path id="XMLID_570_" d="m256.79 420c-2.63 0-5.21 1.07-7.07 2.93s-2.93 4.44-2.93 7.07 1.07 5.21 2.93 7.07 4.44 2.93 7.07 2.93 5.21-1.07 7.069-2.93c1.87-1.86 2.931-4.44 2.931-7.07s-1.061-5.21-2.931-7.07c-1.859-1.86-4.429-2.93-7.069-2.93z"/></g></g></svg>