<svg id="Capa_1" enable-background="new 0 0 512 512" height="512" viewBox="0 0 512 512" width="512" xmlns="http://www.w3.org/2000/svg"><g><g><path clip-rule="evenodd" d="m141.415 105.909c-64.261-26.165-131.414 8.769-131.414 61.383 0 14.36 4.989 30.053 16.441 46.172v119.531c0 20.404 13.606 37.119 33.42 37.119h48.699c11.905-24.065 41.357-53.125 81.099-74.664 14.485-7.832 30.331-14.7 47.197-19.95 6.378-1.986 12.898-3.746 19.559-5.222v-56.814c32.74-46.144 12.784-88.712-26.447-107.016-24.661-11.493-56.948-13.394-88.554-.539z" fill="#ffd4b5" fill-rule="evenodd"/></g><g><path clip-rule="evenodd" d="m352.057 106.448h-122.088c39.231 18.304 59.187 60.872 26.447 107.016v56.814c7.172-1.618 14.457-2.923 21.883-3.888 8.334-1.078 16.809-1.731 25.398-1.901 7.597-.142 15.165.199 22.677.993 14.173 1.447 28.063 4.455 41.471 8.627 16.753 5.222 32.683 12.288 47.367 20.461 20.069 11.21 37.757 24.519 51.845 38.141v-118.708c53.292-75.175-33.165-140.871-115-107.555z" fill="#ffa96b" fill-rule="evenodd"/></g><g><path clip-rule="evenodd" d="m236.857 275.5c-.907 29.712-9.071 57.751-24.491 57.751-11.849 0-19.417-16.602-22.705-37.8-39.742 21.539-69.193 50.599-81.099 74.664-12.444 25.172-5.698 44.895 28.573 44.895h330.49c50.938 0 40.564-42.483-.567-82.298-14.088-13.622-31.776-26.931-51.845-38.141-3.203 21.596-10.8 38.68-22.847 38.68-15.647 0-23.839-28.918-24.52-59.141-13.408-4.172-27.298-7.18-41.471-8.627 2.891 35.644-5.102 77.786-24.009 77.786-18.737 0-26.759-41.433-24.066-76.878-7.427.965-14.712 2.27-21.883 3.888-6.662 1.475-13.182 3.235-19.56 5.221z" fill="#ffa96b" fill-rule="evenodd"/></g><g><path clip-rule="evenodd" d="m303.698 264.489c-8.589.17-17.064.823-25.398 1.901-2.693 35.445 5.329 76.878 24.066 76.878 18.907 0 26.901-42.142 24.009-77.786-7.512-.794-15.08-1.135-22.677-.993z" fill="#ffd4b5" fill-rule="evenodd"/></g><g><path clip-rule="evenodd" d="m236.857 275.5c-16.866 5.25-32.712 12.118-47.197 19.95 3.288 21.199 10.857 37.8 22.705 37.8 15.421.001 23.585-28.038 24.492-57.75z" fill="#ffd4b5" fill-rule="evenodd"/></g><g><path clip-rule="evenodd" d="m415.212 294.57c-14.683-8.173-30.614-15.239-47.367-20.461.68 30.223 8.872 59.141 24.52 59.141 12.047.001 19.644-17.083 22.847-38.68z" fill="#ffd4b5" fill-rule="evenodd"/></g><g><path d="m86.817 144.882c-5.522 0-10 4.477-10 10s4.477 10 10 10h.057c5.522 0 9.971-4.477 9.971-10s-4.505-10-10.028-10z"/><path d="m76.219 200.684c-5.522 0-10 4.477-10 10 0 5.522 4.477 10 10 10h.028c5.522 0 9.986-4.477 9.986-10s-4.492-10-10.014-10z"/><path d="m147.396 154.88c-5.522 0-10 4.477-10 10 0 5.522 4.477 10 10 10h.057c5.522 0 9.972-4.477 9.972-10-.001-5.523-4.507-10-10.029-10z"/><path d="m501.394 359.149c-6.005-10.114-14.329-20.496-24.337-30.564v-111.468c10.914-16.263 16.438-32.842 16.428-49.323-.01-16.084-5.471-31.465-15.791-44.482-12.909-16.281-32.676-28.016-55.661-33.044-23.535-5.148-48.349-3.009-71.896 6.181h-118.009c-6.51-2.863-13.454-5.128-20.724-6.719-22.897-5.011-47.012-3.121-69.989 5.447-22.975-8.567-47.082-10.456-69.977-5.449-22.986 5.029-42.752 16.764-55.658 33.046-10.317 13.019-15.775 28.4-15.78 44.484-.006 16.481 5.524 33.059 16.443 49.322v116.415c0 26.863 18.667 47.119 43.42 47.119h34.335c-.972 3.954-1.473 7.774-1.439 11.409.097 10.491 4.392 19.156 12.426 25.059 7.608 5.593 18.358 8.428 31.95 8.428h152.107c5.522 0 10-4.477 10-10 0-5.522-4.478-10-10-10h-152.107c-24.251 0-24.346-10.29-24.377-13.671-.136-14.742 16.921-42.995 54.692-70.192 4.267-3.073 9.385-6.531 15.27-10.138 7.569 27.681 21.392 32.241 29.647 32.241 8.135 0 19.428-4.194 27.034-24.175 3.669-9.636 6.128-22.241 7.088-36.048 6.812-1.91 13.925-3.577 21.322-4.922-.238 25.653 4.585 53.701 16.812 66.893 6.336 6.836 13.147 8.27 17.745 8.27 4.618 0 11.457-1.446 17.809-8.335 12.404-13.451 17.158-41.989 16.749-67.984 7.34 1.209 14.435 2.804 21.235 4.688 1.901 31.011 11.67 61.613 34.205 61.613 8.359 0 22.329-4.652 29.836-32.883 14.049 8.878 26.938 18.947 37.766 29.393.026.026.053.05.08.076 10.085 9.74 18.38 19.803 24.151 29.522 7.169 12.075 9.569 22.585 6.421 28.116-2.766 4.859-10.931 7.535-22.994 7.535h-88.582c-5.522 0-10 4.477-10 10 0 5.522 4.477 10 10 10h88.582c25.071 0 35.794-9.593 40.375-17.64 4.916-8.639 7.762-24.018-6.607-48.22zm-289.028-35.898c-2.393 0-7.918-5.644-11.537-22.365 7.557-3.838 15.896-7.602 24.942-11.036-2.721 22.237-9.508 33.401-13.405 33.401zm35.894-115.571c-1.199 1.69-1.844 3.712-1.844 5.785v48.994c-67.063 17.379-122.267 60.036-143.868 97.656h-42.685c-15.375 0-23.42-13.643-23.42-27.119v-119.53c0-2.073-.645-4.095-1.844-5.785-18.186-25.641-19.333-52.059-3.145-72.482 18.837-23.766 61.364-38.275 106.191-20.027 2.418.984 5.123.984 7.541 0 44.836-18.253 87.371-3.738 106.214 20.036 16.187 20.42 15.043 46.835-3.14 72.472zm57.212 123.695c-1.746 1.894-2.769 1.894-3.106 1.894-.333 0-1.347 0-3.077-1.866-7.409-7.993-12.065-31.616-11.431-56.027 5.231-.475 10.568-.788 16.023-.889 1.07-.02 2.136-.029 3.198-.029 3.3 0 6.562.104 9.792.282.736 24.637-3.898 48.5-11.399 56.635zm86.893-8.124c-3.918 0-10.938-11.888-13.551-34.77 9.253 3.568 17.733 7.514 25.298 11.468-3.597 17.429-9.278 23.302-11.747 23.302zm69.356-119.247h-102.578c-5.522 0-10 4.477-10 10s4.477 10 10 10h97.915v86.682c-9.948-7.966-20.817-15.459-32.229-22.131-26.81-15.672-68.756-33.498-117.75-34.097-9.084-.111-28.554 1.531-40.662 3.656v-41.534c10.918-16.261 16.446-32.837 16.44-49.316-.007-16.082-5.464-31.463-15.782-44.48-1.743-2.199-3.621-4.307-5.605-6.335h90.588c1.293 0 2.573-.251 3.771-.738 44.824-18.249 87.352-3.739 106.196 20.027 15.304 19.303 15.115 43.966-.304 68.266z"/><path d="m110.659 174.405c-5.522 0-10 4.477-10 10s4.478 10 10 10h.057c5.522 0 9.971-4.477 9.971-10s-4.505-10-10.028-10z"/><path d="m334.141 405.01c-5.522 0-10 4.477-10 10 0 5.522 4.478 10 10 10h.028c5.522 0 9.985-4.477 9.985-10 .001-5.523-4.49-10-10.013-10z"/></g></g></svg>