<svg id="Capa_1" enable-background="new 0 0 512 512" height="512" viewBox="0 0 512 512" width="512" xmlns="http://www.w3.org/2000/svg"><g><path d="m236 502h-.004c-11.046 0-20-8.954-20-20v-128h40.004v128c0 11.046-8.954 20-20 20z" fill="#ff9c9b"/><path d="m276.004 502h-.004c-11.046 0-20-8.954-20-20v-128h40.004v128c0 11.046-8.954 20-20 20z" fill="#ff9c9b"/><path d="m256.013 360h-.026c-71.797 0-130-58.203-130-130v-90c0-71.797 58.203-130 130-130h.026c71.797 0 130 58.203 130 130v90c0 71.797-58.203 130-130 130z" fill="#ffbcbc"/><path d="m336.008 230c0 44.183-35.821 80-80.008 80s-80.008-35.817-80.008-80z" fill="#ff9c9b"/><path d="m291.003 230c0 22.091-15.672 40-35.003 40s-35.003-17.909-35.003-40z" fill="#f5eeec"/><ellipse cx="316.006" cy="150" fill="#f5eeec" rx="20.002" ry="20"/><ellipse cx="195.994" cy="150" fill="#f5eeec" rx="20.002" ry="20"/><g fill="#ff7a7a"><path d="m187.193 29.68c-24.802 15.5-43.994 39.12-53.865 67.14-16.602-6.63-28.343-22.86-28.343-41.82 0-24.85 20.152-45 45.004-45 15.462 0 29.103 7.8 37.204 19.68z"/><path d="m407.015 55c0 18.96-11.741 35.19-28.343 41.81-6.531-18.53-17.132-35.13-30.743-48.73-6.971-6.97-14.721-13.15-23.122-18.4 8.101-11.88 21.742-19.68 37.203-19.68 24.853 0 45.005 20.15 45.005 45z"/><path d="m125.987 218.664-99.144-100.381c-7.822-7.919-7.822-20.76 0-28.679 7.822-7.919 20.505-7.919 28.327 0l70.817 71.698z"/><path d="m386.013 218.664 99.144-100.381c7.822-7.919 7.822-20.76 0-28.679-7.822-7.919-20.505-7.919-28.327 0l-70.817 71.698z"/></g><g><path d="m175.992 220c-5.523 0-10.001 4.477-10.001 10 0 49.626 40.378 90 90.009 90s90.009-40.374 90.009-90c0-5.523-4.477-10-10.001-10zm103.583 20c-3.44 11.641-12.709 20-23.575 20s-20.135-8.359-23.575-20zm-23.575 60c-35.207 0-64.427-26.122-69.295-60h25.196c4.181 22.795 22.365 40 44.099 40s39.917-17.205 44.099-40h25.196c-4.868 33.878-34.088 60-69.295 60z"/><path d="m316.006 180c16.544 0 30.003-13.458 30.003-30s-13.459-30-30.003-30-30.003 13.458-30.003 30 13.459 30 30.003 30zm0-40c5.515 0 10.001 4.486 10.001 10s-4.486 10-10.001 10-10.001-4.486-10.001-10 4.486-10 10.001-10z"/><path d="m195.994 120c-16.544 0-30.003 13.458-30.003 30s13.459 30 30.003 30 30.003-13.458 30.003-30-13.459-30-30.003-30zm0 40c-5.515 0-10.001-4.486-10.001-10s4.486-10 10.001-10 10.001 4.486 10.001 10-4.486 10-10.001 10z"/><path d="m492.272 82.577c-5.677-5.748-13.234-8.913-21.279-8.913s-15.602 3.165-21.278 8.913l-53.759 54.427c-.251-11.936-1.976-23.713-5.196-35.103 16.196-9.873 26.256-27.425 26.256-46.902 0-30.327-24.675-55-55.005-55-15.039 0-29.244 6.15-39.521 16.775-5.971-3.228-12.165-6.029-18.555-8.355-1.11-.4-2.26-.61-3.43-.61-4.181 0-7.961 2.65-9.391 6.58-.92 2.51-.8 5.23.33 7.65s3.13 4.26 5.64 5.17c47.225 17.22 78.948 62.54 78.928 112.79v90c0 32.04-12.491 62.17-35.154 84.85-22.672 22.661-52.815 35.151-84.858 35.151s-62.186-12.49-84.858-35.15c-22.662-22.67-35.153-52.81-35.153-84.85v-90c-.02-50.6 32.003-96.03 79.658-113.05 5.2-1.86 7.911-7.59 6.061-12.78-1.42-3.97-5.201-6.64-9.421-6.64-1.14 0-2.27.19-3.361.58-6.699 2.388-13.189 5.28-19.426 8.652-10.278-10.618-24.477-16.762-39.51-16.762-30.33 0-55.005 24.673-55.005 55 0 19.473 10.06 37.028 26.257 46.909-3.215 11.389-4.945 23.16-5.196 35.096l-53.76-54.428c-5.677-5.748-13.234-8.913-21.279-8.913s-15.603 3.165-21.279 8.913c-11.637 11.781-11.637 30.951 0 42.733l96.259 97.46v7.23c0 18.9 3.7 37.24 11.001 54.5 3.51 8.29 7.861 16.29 12.911 23.78 5.011 7.41 10.761 14.38 17.102 20.71 6.331 6.34 13.302 12.09 20.712 17.1 7.491 5.05 15.492 9.4 23.783 12.91 1.491.631 2.993 1.224 4.5 1.801v121.199c0 16.542 13.459 30 30.003 30 7.678 0 14.69-2.902 20.002-7.663 5.312 4.761 12.323 7.663 20.002 7.663 16.544 0 30.003-13.458 30.003-30v-121.199c1.507-.577 3.009-1.171 4.5-1.801 8.291-3.51 16.292-7.86 23.782-12.91 7.411-5.01 14.381-10.76 20.712-17.1 6.34-6.33 12.091-13.3 17.102-20.71 5.05-7.49 9.401-15.49 12.911-23.78 7.301-17.26 11.001-35.6 11.001-54.5v-7.23l96.259-97.46c11.636-11.782 11.636-30.952-.001-42.733zm-342.282-62.577c8.172 0 15.955 2.86 22.132 7.905-.188.141-.382.273-.57.415-11.281 8.54-21.173 18.69-29.413 30.18-5.415 7.55-10.027 15.588-13.819 24.003-8.307-6.519-13.333-16.53-13.333-27.503-.001-19.299 15.701-35 35.003-35zm-116.031 91.256c-3.983-4.032-3.983-10.593 0-14.625 1.889-1.913 4.392-2.966 7.048-2.966 2.655 0 5.158 1.053 7.048 2.966l67.932 68.776v28.9zm202.039 380.744c-5.515 0-10.001-4.486-10.001-10v-115.221c6.566 1.433 13.241 2.393 20.002 2.867v112.354c0 5.514-4.486 10-10.001 10zm50.005-10c0 5.514-4.486 10-10.001 10s-10.001-4.486-10.001-10v-112.354c6.761-.474 13.436-1.434 20.002-2.867zm54.985-453.27c-.367-.281-.746-.543-1.116-.82 6.178-5.048 13.964-7.91 22.138-7.91 19.301 0 35.003 15.701 35.003 35 0 10.977-5.027 20.986-13.334 27.5-3.732-8.278-8.263-16.191-13.559-23.63-8.16-11.46-17.961-21.6-29.132-30.14zm137.052 82.526-82.027 83.051v-28.9l67.932-68.776c1.889-1.913 4.392-2.966 7.047-2.966 2.656 0 5.158 1.053 7.048 2.966 3.984 4.032 3.983 10.593 0 14.625z"/><path d="m212.496 80h-33.003c-5.523 0-10.001 4.477-10.001 10s4.477 10 10.001 10h33.003c5.523 0 10.001-4.477 10.001-10s-4.478-10-10.001-10z"/><path d="m332.508 100c5.523 0 10.001-4.477 10.001-10s-4.477-10-10.001-10h-33.003c-5.523 0-10.001 4.477-10.001 10s4.478 10 10.001 10z"/><circle cx="256.419" cy="10" r="10"/></g></g></svg>