<svg id="Capa_1" enable-background="new 0 0 512 512" height="512" viewBox="0 0 512 512" width="512" xmlns="http://www.w3.org/2000/svg"><g><g><path clip-rule="evenodd" d="m164.528 70.882c7.526 22.573 32.745 38.586 56.373 35.775 12.695 38.075 45.269 42.363 55.521 26.491 8.321-12.862 2.045-38.927-41.151-71.011l13.518-21.295c4.544-7.155 2.414-16.724-4.743-21.266l-10.536-6.672c-7.157-4.543-16.727-2.413-21.271 4.742l-13.518 21.294c-47.455-25.44-73.697-20.017-81.79-7.013-9.997 16.042 7.752 43.697 47.597 38.955z" fill="#a0e5a5" fill-rule="evenodd"/></g><g><path clip-rule="evenodd" d="m143.881 258.021c35.613-12.379 63.842-9.341 84.971 3.265 9.769-9.001 18.602-19.279 25.985-30.92 23.486-36.968 28.825-69.336 21.584-97.218-10.252 15.872-42.826 11.584-55.521-26.491-23.628 2.811-48.847-13.203-56.373-35.775-39.844 4.742-57.594-22.913-47.597-38.955-28.314 5.309-55.35 23.907-78.808 60.903-39.759 62.635-26.27 145.714-1.505 187.65 21.782-27.03 57.168-39.807 107.038-22.374.084-.028.17-.056.226-.085z" fill="#ffbdbc" fill-rule="evenodd"/></g><g><path clip-rule="evenodd" d="m36.617 280.48c-53.902 66.894-24.452 221.012 75.23 221.012h31.807 31.836c30.018 0 53.675-13.969 70.601-35.349 18.318-23.14 28.74-54.912 30.842-86.997 1.988-30.778-3.692-61.84-17.437-85.776-7.696-13.345-17.863-24.475-30.643-32.084-21.129-12.607-49.358-15.645-84.971-3.265l-.227.085c-49.87-17.433-85.256-4.656-107.038 22.374z" fill="#ff7b79" fill-rule="evenodd"/></g><g><path clip-rule="evenodd" d="m276.933 379.146c80.228-46.593 135.693-146.395 131.575-244.891-.312-7.751-1.988-16.326-3.039-24.503-.369 2.215-.824 4.685-1.363 6.786-18.857 75.1-76.451 141.199-144.61 176.833 13.745 23.935 19.425 54.997 17.437 85.775z" fill="#fff2a0" fill-rule="evenodd"/></g><g><path clip-rule="evenodd" d="m369.43 117.986 36.039-8.234 58.134-13.26 11.928-2.726c9.315-2.073 18.63-6.445 18.63-16.014v-15.076c0-9.54-6.447-18.796-16.017-18.626l-103.828 1.675c-9.571.142-18.062 6.474-18.63 16.014l-2.244 37.593c-.597 9.54 6.701 20.784 15.988 18.654z" fill="#ffea60" fill-rule="evenodd"/></g><g><path clip-rule="evenodd" d="m246.091 466.143c213.905 14.026 317.591-150.54 217.511-369.65l-58.134 13.26c1.051 8.177 2.726 16.752 3.039 24.503 4.118 98.496-51.346 198.298-131.575 244.891-2.101 32.084-12.523 63.856-30.841 86.996z" fill="#ffea60" fill-rule="evenodd"/></g><g><path d="m217.963 182.143c-4.663-2.957-10.842-1.574-13.8 3.09l-11.36 17.916c-2.665 4.202-1.763 9.904 2.081 13.068 4.585 3.774 11.632 2.649 14.808-2.359l11.36-17.916c2.958-4.664 1.574-10.842-3.089-13.799z"/><path d="m157.705 143.929c-4.662-2.961-10.841-1.582-13.802 3.08l-11.36 17.887c-2.694 4.242-1.747 10.011 2.178 13.157 4.59 3.678 11.553 2.527 14.704-2.435l11.36-17.887c2.961-4.662 1.582-10.841-3.08-13.802z"/><path d="m97.48 105.689c-4.658-2.966-10.839-1.594-13.806 3.065l-11.388 17.888c-2.699 4.239-1.758 10.01 2.163 13.159 4.586 3.684 11.55 2.539 14.707-2.419l11.388-17.888c2.966-4.658 1.594-10.839-3.064-13.805z"/><path d="m95.504 175.3c-4.663-2.957-10.842-1.574-13.799 3.091l-11.359 17.916c-2.957 4.664-1.574 10.842 3.091 13.799 4.608 2.921 10.883 1.51 13.799-3.091l11.359-17.916c2.957-4.664 1.573-10.842-3.091-13.799z"/><path d="m224.665 380.104c-2.122 21.693-11.265 51.438-30.046 63.874-4.605 3.049-5.865 9.254-2.817 13.858 1.924 2.906 5.105 4.48 8.347 4.48 1.895 0 3.813-.538 5.511-1.663 24.612-16.297 36.236-51.289 38.908-78.602.538-5.496-3.482-10.388-8.979-10.926-5.501-.537-10.386 3.483-10.924 8.979z"/><g><path d="m477.657 103.538.046-.01c23.02-5.122 26.458-18.347 26.458-25.774v-15.078c0-8.243-3.186-16.1-8.742-21.558-4.756-4.672-10.985-7.2-17.436-7.066l-103.823 1.675c-15.374.231-27.608 11.158-28.457 25.416l-2.242 37.564c-.57 9.109 3.386 18.666 10.077 24.347 4.031 3.422 8.732 5.2 13.575 5.2 1.506 0 3.025-.172 4.542-.52l20.255-4.624c-18.782 63.108-67.152 121.985-129.038 157.003-2.761-3.973-5.722-7.7-8.896-11.123-3.041-3.28-6.248-6.275-9.603-9.006 7.153-7.591 13.497-15.71 18.905-24.257 22.68-35.699 30.649-69.738 23.733-101.249.364-.829.702-1.675.991-2.551 3.263-9.894 5.517-36.063-39.401-72.134l8.629-13.593c3.629-5.715 4.813-12.515 3.335-19.149-1.479-6.637-5.443-12.291-11.169-15.926l-10.527-6.665c-11.831-7.51-27.564-3.999-35.072 7.825l-8.631 13.596c-51.777-25.289-74.507-12.108-82.071-4.941-.665.63-1.282 1.291-1.874 1.968-31.478 7.152-58.896 28.848-81.539 64.559-24.161 38.036-27.752 79.41-26.509 107.421 1.366 30.809 9.166 61.279 21.56 84.822-13.085 18.646-21.487 43.087-23.958 70.333-2.842 31.335 2.196 63.717 14.186 91.183 19.494 44.655 54.808 70.266 96.886 70.266h63.643c29.312 0 55.333-12.441 75.017-35.077 6.985.371 13.876.565 20.668.565 36.733 0 70.561-5.419 100.837-16.179 5.204-1.849 7.923-7.567 6.073-12.77-1.849-5.204-7.567-7.922-12.77-6.074-29.944 10.642-63.816 15.645-100.886 14.949 2.875-4.924 5.528-10.149 7.937-15.668 7.537-17.266 12.322-36.476 14.133-56.147 82.052-50.182 136.122-152.652 132-251.237-.217-5.395-1.006-10.965-1.818-16.396l41.133-9.389c51.501 117.783 44.028 225.595-20.478 289.531-3.923 3.888-3.951 10.219-.063 14.141 1.956 1.973 4.528 2.96 7.102 2.96 2.544 0 5.09-.965 7.039-2.897 34.925-34.617 55.591-81.576 59.765-135.801 4.098-53.213-7.182-111.182-33.522-172.465zm-350.807-68.08c7.37-6.983 29.379-7.955 67.146 12.294 4.617 2.477 10.36.969 13.167-3.453l13.517-21.293c1.572-2.473 4.994-3.233 7.481-1.655l10.527 6.667c1.624 1.031 2.175 2.564 2.358 3.386.184.824.337 2.449-.698 4.079l-13.518 21.294c-2.808 4.423-1.726 10.264 2.48 13.387 34.391 25.54 42.88 45.859 39.7 55.499-2.569 7.789-12.518 6.867-18.438 4.105-8.71-4.063-14.59-12.543-18.251-21.148-1.296-3.047-1.931-6.612-4.342-9.027-2.151-2.154-5.235-3.227-8.259-2.867-18.784 2.237-39.717-11.048-45.705-29.008-1.5-4.499-5.957-7.326-10.664-6.768-21.906 2.598-34.095-5.909-37.879-13.984-.996-2.123-2.855-7.497 1.378-11.508zm-80.283 62.726c16.855-26.583 36.296-44.138 57.941-52.391.432 3.238 1.37 6.493 2.854 9.661 6.075 12.963 22.823 26.777 50.711 25.931 10.325 20.81 32.855 35.109 56.072 35.586 4.112 9.469 10.108 18.247 18.219 24.729 6.109 4.882 13.396 8.426 21.152 9.658 5.215.828 10.595.527 15.641-1.072 1.737 23.088-5.88 48.15-22.769 74.733-5.392 8.522-11.858 16.568-19.243 24.012-6.486-3.114-13.381-5.436-20.671-6.925-16.047-3.277-33.691-2.437-52.593 2.455v-19.958c0-5.523-4.477-10-10-10s-10 4.477-10 10v20.075c-19.073-4.996-36.868-5.875-53.043-2.572-15.878 3.242-29.906 10.387-41.815 21.256-18.333-40.901-26.683-111.297 7.544-165.178zm207.47 335.052c-9.498 21.757-32.332 58.257-78.547 58.257h-63.643c-46.22 0-69.058-36.507-78.558-58.268-22.428-51.377-15.964-117.546 14.718-150.641 13.797-14.882 31.756-22.395 52.991-22.395 10.233 0 21.23 1.752 32.883 5.259v25.59h-11.669c-5.523 0-10 4.477-10 10s4.477 10 10 10h42.798c5.523 0 10-4.477 10-10s-4.477-10-10-10h-11.129v-25.729c35.635-10.597 65.067-4.684 85.429 17.28 30.686 33.098 37.155 99.271 14.727 150.647zm33.163-72.486c-.121-3.573-.329-7.143-.651-10.698-1.75-19.288-6.486-37.161-13.733-52.583 54.882-31.099 99.867-79.863 125.178-134.287-5.965 77.763-48.568 154.185-110.794 197.568zm79.981-252.498c-1.19-.257-4.017-4.185-3.758-8.325l2.244-37.594c.253-4.257 4.617-6.548 8.796-6.609h.013l103.846-1.675c.03 0 .06-.001.091-.001.726 0 1.794.163 2.99 1.337 1.701 1.671 2.758 4.465 2.758 7.291v15.077c0 3.572-8.268 5.689-10.856 6.265z"/><path d="m402.264 424.997c-3.938 3.872-3.992 10.203-.121 14.141 1.957 1.992 4.544 2.99 7.132 2.99 2.531 0 5.063-.955 7.009-2.869l.029-.028c3.938-3.872 3.978-10.189.106-14.127-3.871-3.938-10.216-3.978-14.155-.107z"/></g></g></g></svg>